<mxfile host="app.diagrams.net" modified="2022-07-20T00:07:54.512Z" agent="5.0 (Macintosh; Intel Mac OS X 10_10_5) AppleWebKit/537.36 (KHTML, like Gecko) Chrome/87.0.4280.88 Safari/537.36" etag="5XEp1MsYm2nbXg6MTEz6" version="20.1.2" type="github">
  <diagram id="C5RBs43oDa-KdzZeNtuy" name="Page-1">
    <mxGraphModel dx="1426" dy="1859" grid="1" gridSize="10" guides="1" tooltips="1" connect="1" arrows="1" fold="1" page="1" pageScale="1" pageWidth="827" pageHeight="1169" math="0" shadow="0">
      <root>
        <mxCell id="WIyWlLk6GJQsqaUBKTNV-0" />
        <mxCell id="WIyWlLk6GJQsqaUBKTNV-1" parent="WIyWlLk6GJQsqaUBKTNV-0" />
        <mxCell id="pZPVSyljl6jMVw00cBAz-12" style="edgeStyle=orthogonalEdgeStyle;rounded=0;orthogonalLoop=1;jettySize=auto;html=1;entryX=0.5;entryY=0;entryDx=0;entryDy=0;" edge="1" parent="WIyWlLk6GJQsqaUBKTNV-1" source="pZPVSyljl6jMVw00cBAz-0" target="pZPVSyljl6jMVw00cBAz-3">
          <mxGeometry relative="1" as="geometry" />
        </mxCell>
        <mxCell id="pZPVSyljl6jMVw00cBAz-0" value="inicio" style="ellipse;whiteSpace=wrap;html=1;" vertex="1" parent="WIyWlLk6GJQsqaUBKTNV-1">
          <mxGeometry x="370" y="-40" width="120" height="80" as="geometry" />
        </mxCell>
        <mxCell id="pZPVSyljl6jMVw00cBAz-1" value="final" style="ellipse;whiteSpace=wrap;html=1;" vertex="1" parent="WIyWlLk6GJQsqaUBKTNV-1">
          <mxGeometry x="370" y="560" width="120" height="80" as="geometry" />
        </mxCell>
        <mxCell id="pZPVSyljl6jMVw00cBAz-8" value="" style="edgeStyle=orthogonalEdgeStyle;rounded=0;orthogonalLoop=1;jettySize=auto;html=1;" edge="1" parent="WIyWlLk6GJQsqaUBKTNV-1" source="pZPVSyljl6jMVw00cBAz-3" target="pZPVSyljl6jMVw00cBAz-6">
          <mxGeometry relative="1" as="geometry" />
        </mxCell>
        <mxCell id="pZPVSyljl6jMVw00cBAz-3" value="Ingresar articulo a comprar" style="shape=parallelogram;html=1;strokeWidth=2;perimeter=parallelogramPerimeter;whiteSpace=wrap;rounded=1;arcSize=12;size=0.23;" vertex="1" parent="WIyWlLk6GJQsqaUBKTNV-1">
          <mxGeometry x="327.5" y="70" width="205" height="40" as="geometry" />
        </mxCell>
        <mxCell id="pZPVSyljl6jMVw00cBAz-6" value="Calcular precio del articulo" style="rounded=1;whiteSpace=wrap;html=1;absoluteArcSize=1;arcSize=14;strokeWidth=2;" vertex="1" parent="WIyWlLk6GJQsqaUBKTNV-1">
          <mxGeometry x="342.5" y="140" width="175" height="40" as="geometry" />
        </mxCell>
        <mxCell id="pZPVSyljl6jMVw00cBAz-14" value="Ingresar efectivo" style="shape=parallelogram;html=1;strokeWidth=2;perimeter=parallelogramPerimeter;whiteSpace=wrap;rounded=1;arcSize=12;size=0.23;" vertex="1" parent="WIyWlLk6GJQsqaUBKTNV-1">
          <mxGeometry x="327.5" y="220" width="205" height="40" as="geometry" />
        </mxCell>
        <mxCell id="pZPVSyljl6jMVw00cBAz-19" value="" style="edgeStyle=orthogonalEdgeStyle;rounded=0;orthogonalLoop=1;jettySize=auto;html=1;" edge="1" parent="WIyWlLk6GJQsqaUBKTNV-1" source="pZPVSyljl6jMVw00cBAz-16" target="pZPVSyljl6jMVw00cBAz-18">
          <mxGeometry relative="1" as="geometry" />
        </mxCell>
        <mxCell id="pZPVSyljl6jMVw00cBAz-16" value="Contar el efectivo" style="rounded=1;whiteSpace=wrap;html=1;absoluteArcSize=1;arcSize=14;strokeWidth=2;" vertex="1" parent="WIyWlLk6GJQsqaUBKTNV-1">
          <mxGeometry x="342.5" y="290" width="175" height="40" as="geometry" />
        </mxCell>
        <mxCell id="pZPVSyljl6jMVw00cBAz-23" value="" style="edgeStyle=orthogonalEdgeStyle;rounded=0;orthogonalLoop=1;jettySize=auto;html=1;" edge="1" parent="WIyWlLk6GJQsqaUBKTNV-1" source="pZPVSyljl6jMVw00cBAz-18" target="pZPVSyljl6jMVw00cBAz-21">
          <mxGeometry relative="1" as="geometry" />
        </mxCell>
        <mxCell id="pZPVSyljl6jMVw00cBAz-18" value="Â¿efectivo es &amp;gt;&amp;nbsp; precio del articulo?&amp;nbsp;" style="strokeWidth=2;html=1;shape=mxgraph.flowchart.decision;whiteSpace=wrap;" vertex="1" parent="WIyWlLk6GJQsqaUBKTNV-1">
          <mxGeometry x="380" y="360" width="100" height="100" as="geometry" />
        </mxCell>
        <mxCell id="pZPVSyljl6jMVw00cBAz-21" value="efectivo - precio del articulo&amp;nbsp;" style="rounded=1;whiteSpace=wrap;html=1;absoluteArcSize=1;arcSize=14;strokeWidth=2;" vertex="1" parent="WIyWlLk6GJQsqaUBKTNV-1">
          <mxGeometry x="532.5" y="390" width="175" height="40" as="geometry" />
        </mxCell>
        <mxCell id="pZPVSyljl6jMVw00cBAz-24" value="no" style="text;html=1;align=center;verticalAlign=middle;resizable=0;points=[];autosize=1;strokeColor=none;fillColor=none;" vertex="1" parent="WIyWlLk6GJQsqaUBKTNV-1">
          <mxGeometry x="330" y="375" width="40" height="30" as="geometry" />
        </mxCell>
        <mxCell id="pZPVSyljl6jMVw00cBAz-25" value="si" style="text;html=1;align=center;verticalAlign=middle;resizable=0;points=[];autosize=1;strokeColor=none;fillColor=none;" vertex="1" parent="WIyWlLk6GJQsqaUBKTNV-1">
          <mxGeometry x="485" y="375" width="30" height="30" as="geometry" />
        </mxCell>
        <mxCell id="pZPVSyljl6jMVw00cBAz-39" value="" style="edgeStyle=orthogonalEdgeStyle;rounded=0;orthogonalLoop=1;jettySize=auto;html=1;" edge="1" parent="WIyWlLk6GJQsqaUBKTNV-1" source="pZPVSyljl6jMVw00cBAz-30" target="pZPVSyljl6jMVw00cBAz-1">
          <mxGeometry relative="1" as="geometry" />
        </mxCell>
        <mxCell id="pZPVSyljl6jMVw00cBAz-30" value="Entregar Cambio" style="rounded=1;whiteSpace=wrap;html=1;absoluteArcSize=1;arcSize=14;strokeWidth=2;" vertex="1" parent="WIyWlLk6GJQsqaUBKTNV-1">
          <mxGeometry x="342.5" y="490" width="175" height="40" as="geometry" />
        </mxCell>
        <mxCell id="pZPVSyljl6jMVw00cBAz-38" value="" style="endArrow=classic;html=1;rounded=0;exitX=0.5;exitY=1;exitDx=0;exitDy=0;" edge="1" parent="WIyWlLk6GJQsqaUBKTNV-1" source="pZPVSyljl6jMVw00cBAz-21">
          <mxGeometry width="50" height="50" relative="1" as="geometry">
            <mxPoint x="567.5" y="460" as="sourcePoint" />
            <mxPoint x="517.5" y="510" as="targetPoint" />
            <Array as="points">
              <mxPoint x="620" y="510" />
            </Array>
          </mxGeometry>
        </mxCell>
        <mxCell id="pZPVSyljl6jMVw00cBAz-42" value="" style="endArrow=classic;html=1;rounded=0;startSize=6;endSize=6;sourcePerimeterSpacing=0;targetPerimeterSpacing=0;exitX=0;exitY=0.5;exitDx=0;exitDy=0;exitPerimeter=0;" edge="1" parent="WIyWlLk6GJQsqaUBKTNV-1" source="pZPVSyljl6jMVw00cBAz-18">
          <mxGeometry width="50" height="50" relative="1" as="geometry">
            <mxPoint x="180" y="410" as="sourcePoint" />
            <mxPoint x="430" y="190" as="targetPoint" />
            <Array as="points">
              <mxPoint x="180" y="410" />
              <mxPoint x="180" y="190" />
            </Array>
          </mxGeometry>
        </mxCell>
        <mxCell id="pZPVSyljl6jMVw00cBAz-47" value="" style="endArrow=classic;html=1;rounded=0;startSize=6;endSize=6;sourcePerimeterSpacing=0;targetPerimeterSpacing=0;exitX=0.5;exitY=1;exitDx=0;exitDy=0;entryX=0.5;entryY=0;entryDx=0;entryDy=0;" edge="1" parent="WIyWlLk6GJQsqaUBKTNV-1" source="pZPVSyljl6jMVw00cBAz-6" target="pZPVSyljl6jMVw00cBAz-14">
          <mxGeometry width="50" height="50" relative="1" as="geometry">
            <mxPoint x="460" y="180" as="sourcePoint" />
            <mxPoint x="410" y="230" as="targetPoint" />
          </mxGeometry>
        </mxCell>
        <mxCell id="pZPVSyljl6jMVw00cBAz-52" value="" style="endArrow=classic;html=1;rounded=0;sourcePerimeterSpacing=0;targetPerimeterSpacing=0;exitX=0.5;exitY=1;exitDx=0;exitDy=0;entryX=0.5;entryY=0;entryDx=0;entryDy=0;" edge="1" parent="WIyWlLk6GJQsqaUBKTNV-1" source="pZPVSyljl6jMVw00cBAz-14" target="pZPVSyljl6jMVw00cBAz-16">
          <mxGeometry width="50" height="50" relative="1" as="geometry">
            <mxPoint x="460" y="260" as="sourcePoint" />
            <mxPoint x="410" y="310" as="targetPoint" />
          </mxGeometry>
        </mxCell>
      </root>
    </mxGraphModel>
  </diagram>
</mxfile>
